<?xml version="1.0" standalone="no"?>
<!DOCTYPE svg PUBLIC "-//W3C//DTD SVG 20010904//EN"
 "http://www.w3.org/TR/2001/REC-SVG-20010904/DTD/svg10.dtd">
<svg version="1.0" xmlns="http://www.w3.org/2000/svg"
 width="512.000000pt" height="512.000000pt" viewBox="0 0 512.000000 512.000000"
 preserveAspectRatio="xMidYMid meet">
<metadata>
Created by potrace 1.11, written by Peter Selinger 2001-2013
</metadata>
<g transform="translate(0.000000,512.000000) scale(0.100000,-0.100000)"
fill="#000000" stroke="none">
<path d="M1796 3889 c-382 -38 -734 -284 -909 -635 -62 -123 -80 -192 -81
-294 0 -109 29 -178 108 -254 l55 -52 -72 -23 c-90 -29 -281 -129 -367 -192
-75 -55 -176 -165 -240 -259 -62 -91 -134 -260 -161 -376 -20 -88 -21 -106
-11 -176 16 -107 44 -167 108 -228 84 -79 180 -112 375 -130 156 -14 999 -13
1074 1 125 23 220 100 308 249 65 109 961 2061 987 2149 34 115 19 169 -60
212 -20 11 -122 14 -525 15 -275 1 -540 -2 -589 -7z m604 -401 c0 -6 -68 -159
-152 -340 l-152 -328 -287 0 c-394 0 -460 14 -501 108 -42 94 0 243 107 383
84 108 229 163 475 178 211 13 510 13 510 -1z m-510 -1120 c-16 -35 -96 -207
-178 -383 l-148 -320 -325 0 c-277 0 -333 3 -389 18 -85 23 -139 61 -167 117
-33 67 -20 143 51 286 67 135 135 204 251 258 165 76 218 84 612 85 l322 1
-29 -62z"/>
<path d="M3570 3880 c-121 -19 -217 -74 -284 -164 -28 -38 -182 -362 -485
-1023 -245 -532 -471 -1023 -503 -1089 -49 -101 -60 -134 -65 -191 -5 -67 -5
-70 26 -105 47 -53 91 -58 560 -58 684 0 844 21 1088 142 314 156 572 465 653
783 36 141 5 279 -84 366 -26 26 -72 60 -102 76 l-55 30 73 36 c126 63 242
141 321 216 85 81 214 271 256 379 32 80 54 208 47 268 -21 179 -124 285 -316
325 -67 14 -1048 22 -1130 9z m629 -400 c107 -10 189 -31 228 -59 96 -70 41
-267 -122 -435 -147 -152 -227 -174 -667 -183 -159 -3 -288 -3 -288 0 0 3 59
135 131 294 72 158 142 312 154 341 l24 52 218 0 c120 -1 265 -5 322 -10z
m-345 -1075 c90 -19 166 -62 188 -106 59 -115 -31 -331 -199 -479 -104 -92
-219 -139 -388 -159 -86 -10 -635 -16 -635 -6 0 4 338 744 346 757 3 5 143 8
312 8 230 0 324 -4 376 -15z"/>
</g>
</svg>
