<svg id="Livello_1" data-name="Livello 1" xmlns="http://www.w3.org/2000/svg" viewBox="0 0 350 161.36"><defs><style>.cls-1{fill:#11539d;}</style></defs><title>trasformiamo_idee_prodotti</title><path class="cls-1" d="M210.48,21.75h-6.8l-2.66,15h6.89a10.2,10.2,0,0,0,6.75-2.07,8.84,8.84,0,0,0,3.08-5.47,9.3,9.3,0,0,0,.18-1.88Q217.92,21.75,210.48,21.75Z" transform="translate(-28.5 -10.68)"/><path class="cls-1" d="M79.82,27.31q0-5.56-7.44-5.56h-6.8l-2.67,15H69.8a10.24,10.24,0,0,0,6.76-2.07,8.89,8.89,0,0,0,3.08-5.47A9.3,9.3,0,0,0,79.82,27.31Z" transform="translate(-28.5 -10.68)"/><polygon class="cls-1" points="60.74 31.57 74.8 31.57 71.12 12.68 60.74 31.57"/><path class="cls-1" d="M361.38,22.88a12.21,12.21,0,0,0-5.86-1.36A14.83,14.83,0,0,0,347.16,24a17,17,0,0,0-5.83,6.57,19,19,0,0,0-2.12,8.8,12.18,12.18,0,0,0,1.43,6,9.83,9.83,0,0,0,3.95,3.93,12,12,0,0,0,5.83,1.38,15,15,0,0,0,8.34-2.44,16.81,16.81,0,0,0,5.86-6.55,19.13,19.13,0,0,0,2.11-8.89,12.42,12.42,0,0,0-1.4-6A9.46,9.46,0,0,0,361.38,22.88Z" transform="translate(-28.5 -10.68)"/><path class="cls-1" d="M185.51,22.88a12.21,12.21,0,0,0-5.86-1.36A14.83,14.83,0,0,0,171.29,24a17.09,17.09,0,0,0-5.83,6.57,19,19,0,0,0-2.12,8.8,12.18,12.18,0,0,0,1.43,6,9.83,9.83,0,0,0,3.95,3.93,12,12,0,0,0,5.83,1.38,15,15,0,0,0,8.34-2.44,16.81,16.81,0,0,0,5.86-6.55,19.13,19.13,0,0,0,2.11-8.89,12.31,12.31,0,0,0-1.4-6A9.46,9.46,0,0,0,185.51,22.88Z" transform="translate(-28.5 -10.68)"/><polygon class="cls-1" points="246.16 31.57 260.22 31.57 256.55 12.68 246.16 31.57"/><path class="cls-1" d="M312.29,100q3-3,3-8.55c0-3.7-1-6.6-3-8.68s-4.85-3.12-8.59-3.12h-5.19v23.38h5.19Q309.31,103.07,312.29,100Z" transform="translate(-28.5 -10.68)"/><path class="cls-1" d="M263.91,155.74q3.27-3.28,3.27-9.21t-3.29-9.32q-3.28-3.36-9.44-3.36h-5.79V159h5.79Q260.65,159,263.91,155.74Z" transform="translate(-28.5 -10.68)"/><path class="cls-1" d="M169.32,144.14a5.56,5.56,0,0,0,1.65-4.31q0-5.94-6.8-5.93H158v11.76h6.15Q167.67,145.66,169.32,144.14Z" transform="translate(-28.5 -10.68)"/><path class="cls-1" d="M216.84,157.61a12.49,12.49,0,0,0,12.09,0,11,11,0,0,0,4.22-4.46,15.43,15.43,0,0,0,0-13.44,11,11,0,0,0-4.2-4.43,12.5,12.5,0,0,0-12.13,0,11.08,11.08,0,0,0-4.2,4.43,15.43,15.43,0,0,0,0,13.44A11,11,0,0,0,216.84,157.61Z" transform="translate(-28.5 -10.68)"/><path class="cls-1" d="M285.44,157.61a12.47,12.47,0,0,0,12.08,0,11.1,11.1,0,0,0,4.23-4.46,15.43,15.43,0,0,0,0-13.44,11.1,11.1,0,0,0-4.21-4.43,12.5,12.5,0,0,0-12.13,0,11.15,11.15,0,0,0-4.2,4.43,15.43,15.43,0,0,0,0,13.44A11,11,0,0,0,285.44,157.61Z" transform="translate(-28.5 -10.68)"/><path class="cls-1" d="M195.87,144.35a6,6,0,0,0,1.7-4.48,5.75,5.75,0,0,0-1.67-4.41,7.32,7.32,0,0,0-5.13-1.56h-6.15V146h6.15A7,7,0,0,0,195.87,144.35Z" transform="translate(-28.5 -10.68)"/><path class="cls-1" d="M88.45,120.85V172H378.5V120.85ZM367,130.45v32h-4.18v-32Zm-31,3.4v-3.4h21.68v3.4h-8.72v28.63h-4.19V133.85Zm-24.85,0v-3.4h21.68v3.4h-8.73v28.63h-4.18V133.85Zm-3.54,12.59a16.78,16.78,0,0,1-2.12,8.45,15.11,15.11,0,0,1-5.78,5.82,17,17,0,0,1-16.31,0,15.4,15.4,0,0,1-5.82-5.84,17.75,17.75,0,0,1,0-16.86,15.3,15.3,0,0,1,5.82-5.83,17,17,0,0,1,16.31,0,15.08,15.08,0,0,1,5.78,5.81A16.8,16.8,0,0,1,307.56,146.44Zm-36.11.09a17,17,0,0,1-2.05,8.53,13.46,13.46,0,0,1-5.88,5.51,20.18,20.18,0,0,1-9.07,1.91h-10v-32h10a19.66,19.66,0,0,1,9.07,2A13.67,13.67,0,0,1,269.4,138,17.06,17.06,0,0,1,271.45,146.53ZM239,146.44a16.78,16.78,0,0,1-2.12,8.45,15.2,15.2,0,0,1-5.79,5.82,17,17,0,0,1-16.31,0,15.37,15.37,0,0,1-5.81-5.84,17.75,17.75,0,0,1,0-16.86,15.28,15.28,0,0,1,5.81-5.83,17,17,0,0,1,16.31,0,15.17,15.17,0,0,1,5.79,5.81A16.8,16.8,0,0,1,239,146.44Zm-36.67,16h-5l-7.63-13.1h-5v13.1h-4.18v-32h10.33a13.85,13.85,0,0,1,6.14,1.24,8.66,8.66,0,0,1,3.74,3.36,9.28,9.28,0,0,1-6.39,14Zm-27.06-22.65a8.84,8.84,0,0,1-2.73,6.63q-2.73,2.65-8.34,2.65H158v13.37h-4.19v-32h10.34c3.62,0,6.37.88,8.25,2.62A8.81,8.81,0,0,1,175.24,139.83Zm-38.77-9.56-5.7,32.21H128.7l-13.82-28.86-5.1,28.86h-2.07l5.7-32.21h2.06L129.35,159l5.05-28.76Zm-30.6-.05-5.74,32.26H98.06l5.74-32.26Z" transform="translate(-28.5 -10.68)"/><path class="cls-1" d="M214.84,65.76V117H378.5V65.76Zm24,39.93-.32,1.65H224.45l5.74-32.25h2.07l-5.42,30.6Zm22.33-15.35L260.83,92H248l-2.44,13.64h14.24l-.32,1.7H243.19l5.75-32.25H265.2l-.32,1.7h-14.2l-2.39,13.55Zm20,17V75.41h5.24v31.93Zm12.13,0V75.41H303.7a19.37,19.37,0,0,1,8.94,2,14,14,0,0,1,5.92,5.6,16.81,16.81,0,0,1,2.09,8.52,16.44,16.44,0,0,1-2.09,8.46,13.8,13.8,0,0,1-5.92,5.49,19.88,19.88,0,0,1-8.94,1.9ZM342.11,89v4.27h-11v9.79h12.41v4.27H325.84v-32h17.65v4.27H331.08V89Zm25.45-9.37h-12.4V89h11v4.27h-11v9.79h12.4v4.27H349.92v-32h17.64Z" transform="translate(-28.5 -10.68)"/><path class="cls-1" d="M28.5,10.68V61.86h350V10.68Zm340.39,22a20.55,20.55,0,0,1-2.46,9.93,19.09,19.09,0,0,1-6.75,7.23,17.61,17.61,0,0,1-9.53,2.69A14,14,0,0,1,343.28,51a11.24,11.24,0,0,1-4.57-4.62,14.11,14.11,0,0,1-1.61-6.84,20.42,20.42,0,0,1,2.46-9.88,19.12,19.12,0,0,1,6.75-7.24,17.61,17.61,0,0,1,9.53-2.69,14,14,0,0,1,6.89,1.63,11.26,11.26,0,0,1,4.55,4.6A14,14,0,0,1,368.89,32.73ZM314,52.21h-1.65L305,25.1l-4.83,27.11h-2.07l5.61-31.56h2.16l7.81,28.81,18-28.81h2.16l-5.6,31.56h-2.07L331,24.92ZM284.36,20.69h2.29l6.25,31.52h-2.25L289,43.94h-15.3l-4.54,8.27h-2.26ZM261.71,52.21h-2.07L265.38,20h2.07Zm-23.85,0h-1.65L228.86,25.1,224,52.21H222l5.6-31.56h2.16l7.81,28.81,18-28.81h2.16l-5.6,31.56H250l4.87-27.29Zm-21.77,0h-2.48l-5.84-13.74h-7l-2.48,13.74h-2.07L201.94,20h8.86c3.13,0,5.45.65,7,1.95a6.6,6.6,0,0,1,2.29,5.31,10.23,10.23,0,0,1-.18,2,11.16,11.16,0,0,1-3.19,6.14,11.47,11.47,0,0,1-6.64,3ZM193,32.73a20.55,20.55,0,0,1-2.46,9.93,19,19,0,0,1-6.75,7.23,17.61,17.61,0,0,1-9.53,2.69A14,14,0,0,1,167.41,51a11.24,11.24,0,0,1-4.57-4.62,14.22,14.22,0,0,1-1.61-6.84,20.42,20.42,0,0,1,2.46-9.88,19.12,19.12,0,0,1,6.75-7.24A17.64,17.64,0,0,1,180,19.68a14.08,14.08,0,0,1,6.9,1.63,11.3,11.3,0,0,1,4.54,4.6A14,14,0,0,1,193,32.73Zm-37.39,2.48-.33,1.7H142.58l-2.71,15.3H137.8L143.54,20h16.59l-.32,1.7H145.29L142.9,35.21ZM118.39,31.1A7.76,7.76,0,0,0,120.73,33a34.74,34.74,0,0,0,3.79,1.68,44,44,0,0,1,4.37,2,8.28,8.28,0,0,1,2.8,2.48,6.62,6.62,0,0,1,1.15,4q0,.38-.09,1.38a8.69,8.69,0,0,1-1.59,4,9,9,0,0,1-3.61,2.89,12.37,12.37,0,0,1-5.33,1.08,11.51,11.51,0,0,1-5.26-1.1,7.09,7.09,0,0,1-3.19-3,7.43,7.43,0,0,1-.83-4.18H115a6.52,6.52,0,0,0,.55,3,5.47,5.47,0,0,0,2.35,2.51,10.29,10.29,0,0,0,10.54-1,6.7,6.7,0,0,0,2.27-5.31,5.1,5.1,0,0,0-1-3.26,7.76,7.76,0,0,0-2.45-2.07,34.75,34.75,0,0,0-4-1.74,42,42,0,0,1-4.23-1.91,8.08,8.08,0,0,1-2.64-2.3,5.92,5.92,0,0,1-1.08-3.65,10.48,10.48,0,0,1,.1-1.15A7.75,7.75,0,0,1,117,23.47a9.26,9.26,0,0,1,3.6-2.8,12.6,12.6,0,0,1,5.26-1,11,11,0,0,1,5,1,7.25,7.25,0,0,1,3.07,2.71,6.16,6.16,0,0,1,.92,3.56H132.7a4.8,4.8,0,0,0-.71-2.55,5.82,5.82,0,0,0-2.37-2.16,8.45,8.45,0,0,0-4-.85,9.27,9.27,0,0,0-5.9,1.82,6,6,0,0,0-2.32,5A4.49,4.49,0,0,0,118.39,31.1ZM78,52.21H75.5L69.67,38.47h-7L60.16,52.21H58.09L63.83,20H72.7q4.68,0,7,1.95A6.61,6.61,0,0,1,82,27.22a10.23,10.23,0,0,1-.18,2,11.1,11.1,0,0,1-3.2,6.14,11.44,11.44,0,0,1-6.64,3ZM38.1,21.66l.33-1.7H58.87l-.32,1.7H49.36L44,52.21H41.92l5.37-30.55Zm60.83-1h2.3l6.25,31.52h-2.25l-1.61-8.27H88.32l-4.55,8.27H81.52Z" transform="translate(-28.5 -10.68)"/></svg>