<?xml version="1.0" encoding="utf-8"?>
<!-- Generator: Adobe Illustrator 23.0.1, SVG Export Plug-In . SVG Version: 6.00 Build 0)  -->
<svg version="1.1" id="Livello_1" xmlns="http://www.w3.org/2000/svg" xmlns:xlink="http://www.w3.org/1999/xlink" x="0px" y="0px"
	 viewBox="0 0 4439.86 1725.46" style="enable-background:new 0 0 4439.86 1725.46;" xml:space="preserve">
<style type="text/css">
	.st0{fill:#005CA5;}
</style>
<g>
	<g>
		<path class="st0" d="M3078.88,193.32l-7.17-26.25l-9.56-28.65l-11.92-21.46l-14.34-21.49l-16.68-16.71l-26.26-21.48l-28.65-14.32
			l-31.02-14.33l-33.4-7.15l-40.58-7.16l-40.59-4.77l-50.11-2.39h-50.12h-494.05l-50.11,2.39l-42.96,9.55l-40.59,14.31l-33.42,21.48
			l-33.4,23.87l-31.02,35.79l-28.65,42.96l-23.86,54.9l-572.81,1245.85l-14.33,23.89l-9.54,23.86l-7.17,21.47l-2.38,21.48
			l-4.78,16.72v19.08l2.39,14.32l7.16,16.73l4.78,9.54l9.54,9.53l9.55,7.16l14.33,9.56l14.31,2.39l21.47,4.76l21.49,2.39l26.25,2.39
			h465.41l57.28-2.39l57.28-2.39l52.5-4.76l23.87-2.39h26.24l45.34-9.56l47.74-9.55l42.96-14.31l9.56-4.76l4.77-2.41h7.17
			l23.85-4.75l14.33-9.56l7.14-4.77l9.56-2.38l33.42-14.32l31.01-19.09l33.42-16.72l62.04-45.35l62.06-50.11l4.79-9.53l2.38-4.78
			l4.77-2.39l14.31-14.32l28.66-28.63l50.13-62.05l19.07-33.43l9.56-16.7l11.93-14.32l35.81-66.83l16.71-42.94l14.29-40.59
			l9.56-38.2l7.15-35.8l-2.37-42.95l-4.78-38.19l-11.93-35.8l-14.34-31.01l-26.25-31.05l-28.63-26.25l-35.79-23.89l-38.21-16.69
			l14.34-9.55l7.15-4.78l9.56-2.4l33.41-14.3l31.01-19.11l14.33-9.54l7.17-4.77l9.56-2.4l54.88-38.17l4.76-7.17l7.17-4.78
			l14.32-9.53l28.64-19.1l9.56-14.31l4.76-7.17l7.15-4.77l23.88-23.87l42.95-52.5l35.8-57.28l2.39-9.55l4.77-7.17l9.56-14.31
			l19.11-28.65l14.29-38.18l11.94-33.4l14.29-64.46l2.41-33.41v-31.03L3078.88,193.32z M2482.17,1078.79l-4.76,26.26l-9.53,28.64
			l-11.95,33.41l-9.56,11.94l-7.14,14.32l-16.7,28.64l-19.11,23.86l-19.07,26.25l-23.89,21.48l-11.93,9.55l-9.53,11.95l-23.89,16.69
			l-23.86,19.1l-28.64,11.93l-28.64,14.31l-31.01,9.55l-31.03,9.56l-35.81,4.76l-33.42,7.15h-19.07h-9.56h-4.78l-2.39,2.39h-19.1
			h-9.54h-4.76l-2.41,2.39h-331.75l221.96-484.5h322.21l71.58,2.39l31.03,4.78l28.64,7.15l47.76,16.71l19.09,11.95l16.71,14.3
			l11.93,11.93l7.15,16.73l4.76,19.07l2.41,23.89L2482.17,1078.79z M2742.34,381.87l-4.76,26.27l-7.17,26.24l-11.94,31.02
			l-9.55,11.95l-7.17,14.33l-16.69,28.63l-7.17,4.78l-4.77,7.16l-9.55,14.31l-7.17,4.77l-4.76,7.17l-9.53,14.32l-43,38.19
			l-42.94,31.01l-50.12,21.49l-40.58,9.55l-23.86,2.37l-21.49,4.77l-50.12,4.78h-28.62h-14.34h-7.17l-4.77,2.38h-281.61
			l195.69-429.6h250.64l76.36,2.39l33.41,2.38l31.02,4.78l26.28,4.77l23.86,7.16l21.49,7.15l19.08,11.94l11.93,9.56l9.56,14.31
			l7.13,16.7l4.77,21.49L2742.34,381.87z"/>
		<path class="st0" d="M1785.26,176.62l9.55-23.86l4.78-23.87l7.14-19.09V73.98l-4.77-26.25l-19.1-21.47l-11.93-9.55l-11.93-4.77
			l-16.72-7.17l-16.69-2.38L1682.63,0h-494.04l-107.41,2.39l-90.7,11.93L904.57,35.8l-83.55,35.79l-69.2,38.2L685,159.9l-64.45,54.9
			l-54.9,64.44l-47.73,64.44l-35.8,71.61l-19.1,35.79l-11.92,35.8l-9.55,33.41l-4.77,35.8L432,584.73l2.39,31.04l4.77,28.64
			l11.94,28.65l11.92,28.63l21.49,28.64l26.26,26.26l31.02,23.86l-93.08,31.02l-42.96,19.1l-38.18,23.86l-54.9,26.27l-47.73,33.41
			l-45.35,35.8l-38.19,42.96l-38.18,40.57l-33.43,47.74l-31.01,50.13l-23.88,54.89l-28.64,66.83l-16.71,64.47l-7.16,28.63L0,1377.13
			v28.65l4.78,31.03l4.77,28.63l9.55,31.04l11.94,26.25l16.71,26.23L74,1575.23l14.32,11.92l19.1,14.34l26.25,11.95l33.41,14.29
			l35.8,9.56l42.96,9.55l42.95,2.39l50.13,4.78l52.5,2.39l59.68,2.37h467.8l9.53-2.37h11.92l23.88-2.39l21.49-4.78l23.86-2.39
			l38.18-16.71l16.71-9.54l19.1-9.56l14.32-16.7l16.71-14.33l14.33-19.08l7.16-9.55l9.55-7.17l28.63-42.95l11.94-23.86l14.32-23.88
			l575.21-1248.24L1785.26,176.62z M911.73,1405.78H579.98l-40.57-2.39L506,1401l-31.04-7.15l-26.25-4.77l-26.25-9.56l-19.08-9.56
			l-19.11-14.29l-11.92-11.95l-14.33-19.1l-7.16-16.69l-4.77-21.49l2.39-21.47v-26.28l7.16-23.85l9.55-28.65l14.32-26.26
			l31.04-62.03l16.71-26.27l21.47-21.47l19.1-23.88l23.86-19.08l23.86-16.71l28.65-11.95l54.89-26.24l64.45-16.7l71.61-11.93
			l78.76-2.39h322.2L911.73,1405.78z M1245.87,680.2H964.24l-31.04-2.38h-26.25l-45.34-4.76l-21.49-4.78l-16.71-2.38l-28.63-9.56
			l-14.32-7.15l-9.56-7.17l-14.32-16.7l-7.16-16.71l-7.16-21.49v-21.47l-2.39-26.25l4.78-23.87l7.16-28.64l11.92-26.26l31.04-59.66
			l35.8-47.73l19.08-21.49l23.86-14.31l50.12-23.87l23.88-11.93l28.65-7.16l64.42-11.94l71.62-7.17l81.16-2.39h250.59L1245.87,680.2
			z"/>
	</g>
	<g>
		<path class="st0" d="M3345.32,1526.84c0,13.76-3.2,27.37-9.61,40.82c-6.41,13.45-15.39,24.84-26.93,34.17
			c-12.66,10.13-27.41,18.04-44.26,23.73s-37.14,8.54-60.87,8.54c-25.47,0-48.37-2.37-68.7-7.12
			c-20.33-4.75-41.02-11.78-62.06-21.12v-58.85h3.32c17.88,14.87,38.52,26.34,61.94,34.41c23.41,8.07,45.4,12.1,65.97,12.1
			c29.11,0,51.77-5.46,67.99-16.37c16.21-10.92,24.32-25.47,24.32-43.66c0-15.66-3.84-27.21-11.51-34.65
			c-7.68-7.43-19.34-13.21-35-17.32c-11.87-3.16-24.72-5.77-38.56-7.83c-13.85-2.05-28.52-4.66-44.02-7.83
			c-31.32-6.64-54.54-17.99-69.65-34.05c-15.11-16.06-22.66-36.98-22.66-62.77c0-29.58,12.5-53.83,37.49-72.73
			c24.99-18.9,56.72-28.36,95.16-28.36c24.84,0,47.62,2.37,68.34,7.12c20.72,4.75,39.07,10.6,55.05,17.56v55.53h-3.32
			c-13.45-11.39-31.13-20.84-53.04-28.36c-21.91-7.51-44.34-11.27-67.28-11.27c-25.15,0-45.37,5.22-60.63,15.66
			c-15.27,10.44-22.9,23.89-22.9,40.34c0,14.71,3.8,26.26,11.39,34.65c7.59,8.39,20.96,14.79,40.1,19.22
			c10.12,2.22,24.52,4.91,43.19,8.07c18.67,3.17,34.49,6.41,47.46,9.73c26.26,6.96,46.04,17.48,59.33,31.56
			C3338.67,1481.83,3345.32,1501.53,3345.32,1526.84z"/>
		<path class="st0" d="M3485.7,1627.69h-56.72v-67.63h56.72V1627.69z"/>
		<path class="st0" d="M3822.91,1491.95c0,21.52-3.08,41.17-9.25,58.97c-6.17,17.8-14.87,32.87-26.1,45.21
			c-10.44,11.71-22.74,20.76-36.9,27.17c-14.16,6.41-29.15,9.61-44.97,9.61c-13.76,0-26.22-1.51-37.38-4.51s-22.51-7.67-34.05-14
			v111.06h-44.61v-362.84h44.61v27.76c11.87-9.97,25.19-18.31,39.99-25.04c14.79-6.72,30.57-10.09,47.34-10.09
			c31.95,0,56.83,12.07,74.63,36.19C3814.01,1415.58,3822.91,1449.08,3822.91,1491.95z M3776.87,1493.14
			c0-31.95-5.46-55.84-16.37-71.67c-10.92-15.82-27.69-23.73-50.31-23.73c-12.81,0-25.71,2.77-38.68,8.31
			c-12.97,5.54-25.39,12.81-37.26,21.83v150.21c12.65,5.7,23.53,9.57,32.63,11.63c9.1,2.06,19.42,3.08,30.97,3.08
			c24.84,0,44.22-8.38,58.14-25.15C3769.91,1550.89,3776.87,1526.05,3776.87,1493.14z"/>
		<path class="st0" d="M3960.43,1627.69h-56.72v-67.63h56.72V1627.69z"/>
		<path class="st0" d="M4270.35,1627.69h-44.38v-28.24c-3.96,2.69-9.3,6.45-16.02,11.27c-6.73,4.83-13.25,8.66-19.58,11.51
			c-7.44,3.64-15.98,6.68-25.63,9.14c-9.65,2.45-20.96,3.68-33.93,3.68c-23.89,0-44.14-7.91-60.75-23.73
			c-16.61-15.82-24.92-35.99-24.92-60.51c0-20.09,4.31-36.34,12.93-48.77c8.62-12.42,20.92-22.19,36.9-29.31
			c16.14-7.12,35.51-11.94,58.14-14.48c22.62-2.53,46.9-4.43,72.85-5.7v-6.88c0-10.12-1.78-18.51-5.34-25.15
			s-8.66-11.87-15.31-15.66c-6.33-3.64-13.92-6.09-22.78-7.36c-8.86-1.26-18.12-1.9-27.76-1.9c-11.71,0-24.76,1.54-39.16,4.63
			c-14.4,3.09-29.27,7.56-44.61,13.41h-2.37v-45.33c8.7-2.37,21.28-4.98,37.73-7.83c16.45-2.85,32.67-4.27,48.65-4.27
			c18.67,0,34.92,1.54,48.77,4.63c13.84,3.09,25.83,8.35,35.95,15.78c9.97,7.28,17.56,16.69,22.78,28.24
			c5.22,11.55,7.83,25.87,7.83,42.95V1627.69z M4225.98,1562.43v-73.8c-13.61,0.79-29.63,1.98-48.05,3.56
			c-18.43,1.58-33.03,3.88-43.78,6.88c-12.81,3.64-23.18,9.3-31.09,16.97c-7.91,7.68-11.87,18.24-11.87,31.68
			c0,15.19,4.59,26.62,13.76,34.29c9.17,7.68,23.17,11.51,42,11.51c15.66,0,29.98-3.04,42.95-9.14
			C4202.88,1578.29,4214.9,1570.98,4225.98,1562.43z"/>
		<path class="st0" d="M4429.11,1627.69h-56.72v-67.63h56.72V1627.69z"/>
	</g>
	<g>
		<path class="st0" d="M3320.22,58.94c20.23,0,39.99,4.85,59.27,14.55c19.27,9.7,34.29,23.58,45.05,41.64
			c10.76,18.06,16.13,36.89,16.13,56.49c0,19.4-5.3,38.06-15.9,55.96c-10.6,17.91-25.46,31.81-44.57,41.71
			c-19.12,9.9-39.11,14.85-59.99,14.85c-20.87,0-40.87-4.95-59.99-14.85c-19.12-9.9-34-23.8-44.65-41.71
			c-10.65-17.91-15.97-36.56-15.97-55.96c0-19.6,5.4-38.43,16.21-56.49c10.81-18.06,25.85-31.94,45.13-41.64
			C3280.23,63.79,3299.98,58.94,3320.22,58.94z M3320.22,77.59c-16.93,0-33.42,4.06-49.44,12.16c-16.03,8.11-28.57,19.7-37.62,34.77
			c-9.05,15.07-13.58,30.77-13.58,47.08c0,16.22,4.45,31.76,13.34,46.64c8.89,14.87,21.33,26.47,37.3,34.77
			c15.98,8.31,32.64,12.46,50,12.46c17.36,0,34.03-4.15,50-12.46c15.97-8.31,28.38-19.9,37.22-34.77
			c8.84-14.87,13.26-30.42,13.26-46.64c0-16.32-4.5-32.01-13.5-47.08c-9-15.07-21.54-26.66-37.62-34.77
			C3353.5,81.65,3337.04,77.59,3320.22,77.59z M3267.34,233.84V112.66h44.57c15.23,0,26.25,1.12,33.07,3.36
			c6.81,2.24,12.25,6.14,16.29,11.71c4.05,5.57,6.07,11.49,6.07,17.76c0,8.86-3.38,16.56-10.14,23.13
			c-6.76,6.57-15.74,10.25-26.92,11.04c4.58,1.79,8.25,3.93,11.02,6.42c5.22,4.78,11.61,12.79,19.17,24.03l15.82,23.73h-25.56
			l-11.5-19.1c-9.05-15.02-16.35-24.42-21.89-28.21c-3.83-2.78-9.42-4.18-16.77-4.18h-12.3v51.49H3267.34z M3288.27,165.64h25.4
			c12.14,0,20.42-1.69,24.84-5.07c4.42-3.38,6.63-7.86,6.63-13.43c0-3.58-1.07-6.79-3.19-9.63c-2.13-2.84-5.09-4.95-8.87-6.34
			c-3.78-1.39-10.78-2.09-21.01-2.09h-23.8V165.64z"/>
	</g>
</g>
</svg>
