<?xml version="1.0" encoding="utf-8"?>
<!-- Generator: Adobe Illustrator 23.0.1, SVG Export Plug-In . SVG Version: 6.00 Build 0)  -->
<svg version="1.1" id="Livello_1" xmlns="http://www.w3.org/2000/svg" xmlns:xlink="http://www.w3.org/1999/xlink" x="0px" y="0px"
	 viewBox="0 0 406.81 182.38" style="enable-background:new 0 0 406.81 182.38;" xml:space="preserve">
<style type="text/css">
	.st0{fill:#005DA6;}
</style>
<path class="st0" d="M211.86,8.03h-8.14l-3.19,17.93h8.25c3.41,0,6.11-0.82,8.08-2.47c1.98-1.65,3.21-3.83,3.69-6.55
	c0.15-0.7,0.22-1.45,0.22-2.25C220.77,10.25,217.8,8.03,211.86,8.03z"/>
<path class="st0" d="M55.44,14.69c0-4.44-2.97-6.65-8.91-6.65h-8.14L35.2,25.96h8.25c3.41,0,6.1-0.82,8.08-2.47
	c1.98-1.65,3.21-3.83,3.69-6.55C55.37,16.24,55.44,15.49,55.44,14.69z"/>
<path class="st0" d="M0,0v50.44h407V0H0z M12.54,44.5h-2.47L16.5,7.92h-11l0.38-2.03h24.48l-0.39,2.03h-11L12.54,44.5z M53.24,44.5
	h-2.97l-6.99-16.44h-0.22h-8.2L31.9,44.5h-2.48L36.3,5.89h10.62c3.74,0,6.53,0.78,8.36,2.34c1.83,1.56,2.75,3.68,2.75,6.35
	c0,0.84-0.07,1.63-0.22,2.36c-0.55,2.97-1.82,5.42-3.82,7.34c-2,1.92-4.65,3.11-7.95,3.55L53.24,44.5z M85.85,44.5l-1.93-9.9H65.61
	l-5.44,9.9h-2.7L78.32,6.77h2.75l7.48,37.73H85.85z M101.61,19.22c0.75,0.94,1.69,1.71,2.8,2.31c1.12,0.6,2.63,1.27,4.54,2.01
	c2.16,0.88,3.91,1.68,5.23,2.39s2.44,1.71,3.35,2.97c0.92,1.26,1.38,2.85,1.38,4.76c0,0.29-0.04,0.84-0.11,1.65
	c-0.22,1.76-0.85,3.36-1.9,4.81c-1.04,1.45-2.48,2.6-4.32,3.46c-1.83,0.86-3.96,1.29-6.38,1.29c-2.46,0-4.56-0.44-6.3-1.32
	c-1.74-0.88-3.02-2.07-3.82-3.57c-0.81-1.5-1.14-3.17-0.99-5.01h2.48c-0.07,1.21,0.15,2.41,0.66,3.6c0.51,1.19,1.45,2.19,2.81,3
	c1.36,0.81,3.15,1.21,5.39,1.21c3.01,0,5.42-0.8,7.23-2.39c1.81-1.59,2.72-3.71,2.72-6.35c0-1.58-0.4-2.88-1.21-3.9
	c-0.81-1.03-1.79-1.85-2.94-2.48c-1.15-0.62-2.74-1.32-4.76-2.09c-2.13-0.84-3.81-1.6-5.06-2.28c-1.25-0.68-2.3-1.59-3.16-2.75
	c-0.86-1.15-1.29-2.61-1.29-4.37c0-0.26,0.04-0.71,0.11-1.38c0.18-1.72,0.81-3.29,1.87-4.7c1.06-1.41,2.5-2.53,4.32-3.35
	c1.81-0.83,3.91-1.24,6.3-1.24c2.31,0,4.29,0.41,5.94,1.24c1.65,0.82,2.88,1.91,3.69,3.24c0.81,1.34,1.17,2.76,1.1,4.26h-2.53
	c0.04-0.99-0.25-2.01-0.85-3.05c-0.6-1.04-1.55-1.91-2.83-2.58c-1.28-0.68-2.86-1.02-4.73-1.02c-2.86,0-5.22,0.72-7.07,2.17
	c-1.85,1.45-2.78,3.44-2.78,5.97C100.48,17.12,100.86,18.29,101.61,19.22z M151.19,7.92h-17.38l-2.86,16.23h15.23l-0.38,2.04h-15.23
	l-3.25,18.31h-2.48l6.88-38.61h19.85L151.19,7.92z M188.02,33.06c-1.96,3.63-4.66,6.52-8.08,8.66c-3.43,2.15-7.23,3.22-11.41,3.22
	c-3.12,0-5.86-0.65-8.22-1.95c-2.37-1.3-4.19-3.14-5.47-5.53c-1.28-2.38-1.92-5.11-1.92-8.19c0-4.25,0.98-8.2,2.94-11.83
	c1.96-3.63,4.66-6.52,8.08-8.66c3.43-2.15,7.23-3.22,11.41-3.22c3.15,0,5.9,0.65,8.25,1.95c2.35,1.3,4.16,3.13,5.44,5.5
	c1.28,2.36,1.93,5.09,1.93,8.17C190.96,25.47,189.98,29.43,188.02,33.06z M223.13,16.94c-0.55,2.97-1.83,5.42-3.82,7.34
	c-2,1.92-4.65,3.11-7.95,3.55l7.21,16.67h-2.97l-6.99-16.44h-0.22h-8.2l-2.97,16.44h-2.48l6.88-38.61h10.62
	c3.74,0,6.53,0.78,8.36,2.34c1.83,1.56,2.75,3.68,2.75,6.35C223.35,15.42,223.28,16.21,223.13,16.94z M261.63,44.5h-2.47l5.83-32.67
	L244.64,44.5h-1.98l-8.8-32.45l-5.78,32.45h-2.47l6.71-37.79h2.58l9.35,34.49l21.5-34.49h2.58L261.63,44.5z M270.71,44.5l6.88-38.61
	h2.47l-6.88,38.61H270.71z M307.83,44.5l-1.92-9.9h-18.31l-5.45,9.9h-2.7L300.3,6.77h2.75l7.48,37.73H307.83z M352.77,44.5h-2.47
	l5.83-32.67L335.77,44.5h-1.98l-8.8-32.45l-5.78,32.45h-2.47l6.71-37.79h2.58l9.35,34.49l21.5-34.49h2.58L352.77,44.5z
	 M398.55,33.06c-1.96,3.63-4.66,6.52-8.08,8.66c-3.43,2.15-7.23,3.22-11.41,3.22c-3.12,0-5.86-0.65-8.22-1.95
	c-2.37-1.3-4.19-3.14-5.47-5.53c-1.28-2.38-1.92-5.11-1.92-8.19c0-4.25,0.98-8.2,2.94-11.83c1.96-3.63,4.66-6.52,8.08-8.66
	c3.43-2.15,7.23-3.22,11.41-3.22c3.15,0,5.9,0.65,8.25,1.95c2.35,1.3,4.16,3.13,5.45,5.5c1.28,2.36,1.92,5.09,1.92,8.17
	C401.5,25.47,400.51,29.43,398.55,33.06z"/>
<polygon class="st0" points="66.71,32.56 83.54,32.56 79.14,9.96 "/>
<path class="st0" d="M392.5,9.38c-2.04-1.08-4.37-1.62-7.01-1.62c-3.7,0-7.04,0.98-10.01,2.94c-2.97,1.96-5.3,4.58-6.99,7.86
	c-1.69,3.28-2.53,6.79-2.53,10.53c0,2.79,0.57,5.2,1.7,7.23s2.71,3.6,4.73,4.7c2.02,1.1,4.34,1.65,6.99,1.65
	c3.67,0,6.99-0.97,9.98-2.92c2.99-1.94,5.33-4.56,7.01-7.84c1.69-3.28,2.53-6.83,2.53-10.64c0-2.79-0.56-5.2-1.68-7.23
	C396.11,12.02,394.54,10.46,392.5,9.38z"/>
<path class="st0" d="M181.97,9.38c-2.04-1.08-4.37-1.62-7.01-1.62c-3.7,0-7.04,0.98-10.01,2.94c-2.97,1.96-5.3,4.58-6.98,7.86
	c-1.69,3.28-2.53,6.79-2.53,10.53c0,2.79,0.57,5.2,1.71,7.23c1.14,2.04,2.71,3.6,4.73,4.7c2.02,1.1,4.35,1.65,6.98,1.65
	c3.67,0,6.99-0.97,9.98-2.92c2.99-1.94,5.33-4.56,7.01-7.84c1.69-3.28,2.53-6.83,2.53-10.64c0-2.79-0.56-5.2-1.68-7.23
	C185.58,12.02,184,10.46,181.97,9.38z"/>
<polygon class="st0" points="288.69,32.56 305.52,32.56 301.12,9.96 "/>
<path class="st0" d="M223.08,116H407V66.72H223.08V116z M378.78,72.22h21.12v5.11h-14.85v11.22h13.2v5.11h-13.2v11.71h14.85v5.12
	h-21.12V72.22z M349.96,72.22h21.12v5.11h-14.85v11.22h13.2v5.11h-13.2v11.71h14.85v5.12h-21.12V72.22z M310.97,72.27h12.49
	c4.07,0,7.63,0.78,10.7,2.34c3.06,1.56,5.43,3.8,7.09,6.71c1.67,2.92,2.5,6.32,2.5,10.2c0,3.89-0.83,7.26-2.5,10.12
	c-1.67,2.86-4.03,5.05-7.09,6.57c-3.06,1.52-6.63,2.28-10.7,2.28h-12.49V72.27z M296.45,72.27h6.27v38.23h-6.27V72.27z
	 M257.89,71.89h19.47l-0.38,2.03h-17l-2.86,16.23h15.4l-0.39,1.98h-15.34l-2.92,16.33h17.05l-0.38,2.04h-19.52L257.89,71.89z
	 M235.45,71.89h2.47l-6.49,36.63h14.36l-0.39,1.98h-16.83L235.45,71.89z"/>
<path class="st0" d="M333.74,101.75c2.38-2.42,3.58-5.83,3.58-10.23c0-4.44-1.19-7.9-3.58-10.4c-2.38-2.49-5.81-3.74-10.28-3.74
	h-6.22v27.99h6.22C327.93,105.38,331.35,104.17,333.74,101.75z"/>
<path class="st0" d="M275.82,168.44c2.6-2.62,3.91-6.3,3.91-11.03c0-4.77-1.31-8.49-3.93-11.17c-2.62-2.68-6.39-4.02-11.3-4.02
	h-6.93v30.14h6.93C269.44,172.37,273.22,171.06,275.82,168.44z"/>
<path class="st0" d="M162.58,154.55c1.32-1.21,1.98-2.93,1.98-5.17c0-4.73-2.71-7.09-8.14-7.09h-7.37v14.08h7.37
	C159.21,156.37,161.26,155.76,162.58,154.55z"/>
<path class="st0" d="M219.48,170.67c2.14,1.25,4.56,1.87,7.23,1.87c2.68,0,5.09-0.62,7.23-1.87c2.14-1.25,3.83-3.02,5.06-5.33
	s1.84-4.99,1.84-8.03c0-3.08-0.61-5.77-1.84-8.06c-1.23-2.29-2.91-4.06-5.03-5.31c-2.13-1.25-4.55-1.87-7.26-1.87
	c-2.71,0-5.13,0.62-7.26,1.87c-2.13,1.25-3.8,3.02-5.03,5.31c-1.23,2.29-1.84,4.98-1.84,8.06c0,3.04,0.61,5.72,1.84,8.03
	S217.33,169.42,219.48,170.67z"/>
<path class="st0" d="M301.59,170.67c2.14,1.25,4.56,1.87,7.23,1.87c2.68,0,5.09-0.62,7.23-1.87c2.14-1.25,3.83-3.02,5.06-5.33
	s1.84-4.99,1.84-8.03c0-3.08-0.61-5.77-1.84-8.06c-1.23-2.29-2.91-4.06-5.03-5.31c-2.13-1.25-4.55-1.87-7.26-1.87
	c-2.71,0-5.13,0.62-7.26,1.87c-2.13,1.25-3.8,3.02-5.03,5.31c-1.23,2.29-1.84,4.98-1.84,8.06c0,3.04,0.61,5.72,1.84,8.03
	S299.44,169.42,301.59,170.67z"/>
<path class="st0" d="M71.78,182.38H407v-49.72H71.78V182.38z M394.18,138.16h5v38.33h-5V138.16z M362.06,138.16h25.96v4.07h-10.45
	v34.27h-5v-34.27h-10.5V138.16z M332.31,138.16h25.96v4.07h-10.45v34.27h-5v-34.27h-10.5V138.16z M292.13,147.21
	c1.71-2.99,4.02-5.32,6.96-6.98c2.93-1.67,6.18-2.5,9.74-2.5c3.59,0,6.86,0.83,9.79,2.5c2.93,1.67,5.24,3.99,6.93,6.96
	c1.69,2.97,2.53,6.34,2.53,10.12c0,3.78-0.84,7.15-2.53,10.12c-1.69,2.97-4,5.29-6.93,6.96c-2.93,1.67-6.2,2.5-9.79,2.5
	c-3.56,0-6.8-0.83-9.74-2.5c-2.93-1.67-5.25-4-6.96-6.98c-1.71-2.99-2.56-6.35-2.56-10.09C289.57,153.56,290.42,150.2,292.13,147.21
	z M252.56,138.16h11.93c4.18,0,7.8,0.78,10.86,2.34c3.06,1.56,5.41,3.79,7.04,6.68c1.63,2.9,2.45,6.31,2.45,10.23
	c0,3.92-0.82,7.32-2.45,10.2c-1.63,2.88-3.98,5.08-7.04,6.6c-3.06,1.52-6.68,2.28-10.86,2.28h-11.93V138.16z M210.02,147.21
	c1.71-2.99,4.02-5.32,6.96-6.98c2.93-1.67,6.18-2.5,9.74-2.5c3.59,0,6.86,0.83,9.79,2.5c2.93,1.67,5.24,3.99,6.93,6.96
	c1.69,2.97,2.53,6.34,2.53,10.12c0,3.78-0.84,7.15-2.53,10.12c-1.69,2.97-4,5.29-6.93,6.96c-2.93,1.67-6.2,2.5-9.79,2.5
	c-3.56,0-6.8-0.83-9.74-2.5c-2.93-1.67-5.25-4-6.96-6.98c-1.71-2.99-2.56-6.35-2.56-10.09C207.46,153.56,208.31,150.2,210.02,147.21
	z M175.89,138.16h12.38c2.9,0,5.34,0.5,7.34,1.48c2,0.99,3.49,2.33,4.48,4.02c0.99,1.69,1.49,3.61,1.49,5.77
	c0,2.64-0.76,4.97-2.28,6.98c-1.52,2.02-3.8,3.35-6.85,4.02l9.62,16.06h-5.99l-9.13-15.67h-6.05v15.67h-5.01V138.16z M144.04,138.16
	h12.38c4.33,0,7.62,1.04,9.87,3.13c2.25,2.09,3.38,4.79,3.38,8.08c0,3.19-1.09,5.84-3.27,7.95c-2.18,2.11-5.51,3.16-9.98,3.16h-7.37
	v16h-5.01V138.16z M95.65,137.94h2.48l16.61,34.43l6.05-34.43h2.48l-6.82,38.56h-2.47l-16.56-34.54l-6.1,34.54h-2.48L95.65,137.94z
	 M84.15,137.89h2.48l-6.88,38.61h-2.48L84.15,137.89z"/>
<path class="st0" d="M194.37,154.8c1.36-1.34,2.04-3.13,2.04-5.36c0-2.27-0.67-4.03-2.01-5.28c-1.34-1.25-3.38-1.87-6.13-1.87h-7.37
	v14.52h7.37C190.98,156.81,193.01,156.14,194.37,154.8z"/>
</svg>
