<?xml version="1.0" encoding="utf-8"?>
<!-- Generator: Adobe Illustrator 23.0.1, SVG Export Plug-In . SVG Version: 6.00 Build 0)  -->
<svg version="1.1" id="Livello_1" xmlns="http://www.w3.org/2000/svg" xmlns:xlink="http://www.w3.org/1999/xlink" x="0px" y="0px"
	 viewBox="0 0 7.62 6.71" style="enable-background:new 0 0 7.62 6.71;" xml:space="preserve">
<style type="text/css">
	.st0{fill:#005CA5;}
</style>
<g>
	<path class="st0" d="M3.81,0.35l0.55,0.54L4.8,1.31l0.42,0.41V1.13V0.96H6v1.42v0.11l0.08,0.07L6.64,3.1L7,3.46H6.81H6.56v0.25
		v2.75H4.7V5.39V5.14H4.45H3.17H2.92v0.25v1.06H1.06V3.71V3.46H0.81H0.62L0.98,3.1l1.1-1.07l1.18-1.15L3.81,0.35 M3.81,0L3.08,0.71
		L1.9,1.85l-1.1,1.07L0,3.71h0.81v3h2.36V5.39h1.28v1.31h2.36v-3h0.81L6.81,2.92L6.25,2.38V0.71H4.97v0.43L4.54,0.71L3.81,0L3.81,0z
		"/>
</g>
</svg>
